<?xml version="1.0" encoding="utf-8"?>
<svg xmlns="http://www.w3.org/2000/svg" viewBox="0 0 500 500">
  <g style="" transform="matrix(1.943639, 0, 0, 1.942591, -227.069244, -112.487511)">
    <rect width="256" height="256" rx="60" fill="#242938" x="117.052" y="58.307"/>
    <path fill-rule="evenodd" clip-rule="evenodd" d="M 301.442 155.988 C 304.966 141.653 309.393 115.066 293.782 106.056 C 278.244 97.085 258.024 114.274 247.35 124.596 C 236.7 114.378 215.912 97.258 200.319 106.299 C 184.781 115.303 189.577 141.446 193.176 155.873 C 178.684 159.989 153.849 168.863 153.849 186.999 C 153.849 205.077 178.658 214.736 193.063 218.852 C 189.445 233.355 184.9 259.124 200.449 268.109 C 216.106 277.145 236.832 260.43 247.606 249.999 C 258.353 260.378 278.38 277.203 293.919 268.193 C 309.512 259.157 305.453 232.931 301.847 218.422 C 315.809 214.299 340.675 204.853 340.675 186.999 C 340.675 169.037 315.702 160.09 301.442 155.988 Z M 299.672 210.737 C 297.307 203.237 294.119 195.269 290.213 187.037 C 293.938 178.999 297.009 171.133 299.306 163.685 C 309.762 166.721 332.692 173.654 332.692 186.999 C 332.692 200.466 310.689 207.469 299.672 210.737 Z M 289.921 261.28 C 278.325 268 261.1 251.91 253.165 244.269 C 258.428 238.501 263.691 231.799 268.822 224.358 C 277.858 223.555 286.389 222.242 294.13 220.454 C 296.664 230.712 301.566 254.527 289.921 261.28 Z M 204.443 261.183 C 192.84 254.487 198.14 231.49 200.798 220.808 C 208.453 222.506 216.928 223.721 225.977 224.461 C 231.146 231.741 236.563 238.436 242.019 244.302 C 235.274 250.828 216.087 267.91 204.443 261.183 Z M 161.827 186.999 C 161.827 173.481 184.625 166.593 195.317 163.564 C 197.653 171.178 200.724 179.14 204.424 187.192 C 200.674 195.359 197.566 203.45 195.207 211.155 C 185.012 208.228 161.827 200.523 161.827 186.999 Z M 204.317 113.214 C 215.957 106.468 234.028 122.904 241.757 130.301 C 236.326 136.134 230.964 142.778 225.84 150.02 C 217.053 150.836 208.645 152.148 200.911 153.904 C 198.008 142.269 192.683 119.96 204.317 113.214 Z M 274.533 158.708 C 280.492 159.46 286.209 160.464 291.57 161.686 C 289.957 166.857 287.953 172.259 285.586 177.795 C 282.162 171.287 278.487 164.908 274.533 158.708 Z M 247.35 136.012 C 251.029 140.006 254.716 144.464 258.347 149.3 C 250.986 148.952 243.619 148.952 236.264 149.3 C 239.894 144.502 243.613 140.051 247.35 136.012 Z M 209 177.789 C 206.677 172.271 204.691 166.844 203.066 161.602 C 208.397 160.412 214.082 159.435 220.003 158.695 C 216.043 164.883 212.369 171.255 209 177.789 Z M 220.173 215.874 C 214.056 215.186 208.283 214.261 202.954 213.102 C 204.604 207.765 206.641 202.222 209.013 196.588 C 212.426 203.187 216.148 209.623 220.173 215.874 Z M 247.574 238.545 C 243.786 234.461 240.013 229.94 236.333 225.078 C 243.732 225.368 251.142 225.368 258.54 225.04 C 254.902 229.992 251.228 234.518 247.574 238.545 Z M 285.666 196.299 C 288.164 201.996 290.27 207.514 291.937 212.755 C 286.52 213.991 280.673 214.988 274.514 215.728 C 278.494 209.412 282.23 202.929 285.666 196.299 Z M 264.37 216.698 C 253.055 217.508 241.67 217.495 230.349 216.763 C 223.914 207.353 218.186 197.462 213.248 187.192 C 218.167 176.941 223.847 167.062 230.249 157.673 C 241.577 156.812 252.979 156.812 264.307 157.673 C 270.653 167.068 276.326 176.915 281.365 187.076 C 276.388 197.321 270.672 207.218 264.37 216.698 Z M 289.796 112.976 C 301.448 119.702 296.26 143.595 293.713 153.98 C 285.966 152.193 277.547 150.861 268.735 150.032 C 263.602 142.714 258.285 136.058 252.941 130.295 C 260.769 122.738 278.263 106.319 289.796 112.976 Z" fill="#53C1DE" style=""/>
  </g>
  <path d="M 276.663 251.459 C 276.663 237.171 265.011 225.591 250.633 225.591 C 236.26 225.591 224.601 237.171 224.601 251.459 C 224.601 265.735 236.26 277.314 250.633 277.314 C 265.011 277.314 276.663 265.735 276.663 251.459 Z" fill="#53C1DE" style=""/>
</svg>