<?xml version="1.0" encoding="utf-8"?>
<svg xmlns="http://www.w3.org/2000/svg" viewBox="0 0 500 500">
  <g style="" transform="matrix(1.943639, 0, 0, 1.942591, -227.069244, -112.487511)">
    <rect width="256" height="256" rx="60" fill="#242938" x="117.052" y="58.307"/>
  </g>
  <title>file_type_typescript</title>
  <path d="M 347.221 100.015 C 356.875 103.8 365.658 112.319 372.442 124.487 C 376.175 131.08 379.419 138.414 382.107 146.324 C 382.233 147.183 364.705 167.014 354.075 178.075 C 353.689 178.516 352.155 175.708 350.421 171.389 C 346.473 159.964 339.315 152.743 331.475 152.285 C 319.258 150.871 311.383 161.647 311.438 179.662 C 311.337 184.094 311.927 188.47 313.175 192.384 C 315.862 201.745 320.855 207.361 336.536 218.804 C 365.397 239.724 377.785 253.518 385.431 273.117 C 394.18 298.182 395.903 328.481 390.15 355.896 C 382.186 386.137 365.112 406.731 345.542 409.674 C 335.331 411.641 325.007 411.47 314.819 409.138 C 299.209 404.82 284.834 392.212 273.797 373.148 C 269.62 365.237 266.093 356.431 263.29 346.956 C 264.469 345.484 265.706 344.148 266.999 342.981 C 268.793 341.261 275.577 334.691 281.975 328.443 L 293.594 316.979 L 296.022 322.941 C 300.105 332.78 305.313 341.167 311.337 347.624 C 323.737 359.067 338.915 357.787 350.57 344.28 C 356.649 334.291 357.602 318.395 352.838 306.569 C 349.706 299.022 343.308 292.68 325.12 279.404 C 310.861 271.304 297.872 257.893 287.127 240.145 C 282.009 230.325 278.232 218.727 276.054 206.195 C 274.442 191.908 274.205 177.273 275.351 162.867 C 279.719 128.883 296.236 103.15 316.692 98.411 C 326.857 96.368 337.147 96.901 347.221 100.015 Z M 252.57 128.348 L 252.693 156.125 L 200.166 156.125 L 200.166 407.305 L 163.125 407.305 L 163.125 156.183 L 110.597 156.183 L 110.597 128.902 C 110.461 119.559 110.608 110.218 111.051 100.894 C 111.244 100.457 143.181 100.246 181.9 100.36 L 252.366 100.684 L 252.57 128.348 Z" style="fill: rgb(0, 122, 204);"/>
</svg>