<svg width="232" height="66" viewBox="0 0 232 66" fill="none" xmlns="http://www.w3.org/2000/svg">
<path d="M65.9743 11.2114L57.5615 26.0415C57.2209 26.6334 55.6882 29.0515 55.1602 29.4404C53.7638 31.0807 51.8394 32.1629 49.6936 32.535C49.1827 32.7041 47.1732 32.8055 46.6112 32.8055H18.6138L0 65.6449H27.9803C29.5982 65.628 35.4906 65.3067 36.9552 64.7317C42.7624 63.5649 47.9055 59.7264 50.9027 54.4335L59.3156 39.6034C59.6562 39.0115 61.1889 36.5934 61.7168 36.2045C63.1133 34.5642 65.0547 33.4819 67.2005 33.093C67.7114 32.9239 69.7039 32.8224 70.2659 32.8224H98.2632L116.877 0H88.9137C87.2959 0.0169101 81.4035 0.338201 79.9389 0.913144C74.1147 2.06303 68.9716 5.91852 65.9743 11.2114Z" fill="#FF9332"/>
<path d="M65.8721 59.5742L66.0424 59.4896C69.9933 60.9777 74.1827 61.6372 79.9729 61.6372C86.1719 61.6372 88.8115 60.6564 88.8115 59.2191C88.8115 55.0085 65.7358 60.555 65.7358 50.6118C65.7358 46.3167 70.5042 44.0507 79.6323 44.0507C84.1964 44.0507 88.3858 44.6088 92.2516 45.7417V50.1553L92.0813 50.206C88.0452 49.0223 83.9069 48.3966 79.7515 48.3966C73.8081 48.3966 71.2876 49.1238 71.2876 50.4258C71.2876 54.6364 94.3463 49.259 94.3463 59.0669C94.3463 63.8693 90.0377 65.9831 79.6153 65.9831C74.2849 65.9831 69.4314 65.3405 65.821 64.2075V59.5742H65.8721Z" fill="#FF9332"/>
<path d="M103.747 44.6764V65.6618H98.1782V44.6764H103.747Z" fill="#FF9332"/>
<path d="M112.824 55.0761C112.824 59.1683 116.604 61.6372 123.978 61.6372C126.209 61.6372 128.372 61.2821 130.45 60.6733V56.8686H117.831V53.2667H136.002V63.1422C131.846 65.256 128.151 65.9831 123.757 65.9831C113.369 65.9831 107.255 61.9416 107.255 55.0254C107.255 48.1091 113.352 44.0676 123.45 44.0676C128.253 44.0676 132.238 44.9639 136.036 46.9085V51.6095L135.865 51.6434C132.17 49.6311 128.202 48.4135 123.978 48.4135C116.69 48.4473 112.824 50.9162 112.824 55.0761Z" fill="#FF9332"/>
<path d="M170.317 44.6764V65.6618H163.88L146.288 50.7471V65.6618H140.719V44.6764H146.578L164.749 60.0307V44.6764H170.317Z" fill="#FF9332"/>
<path d="M196.203 61.4343H181.268L178.628 65.6449H172.65L186.121 44.6595H191.86L204.65 65.6449H198.672L196.203 61.4343ZM193.682 57.1729L188.948 49.1238L183.907 57.1729H193.682Z" fill="#FF9332"/>
<path d="M232 61.3836V65.6618H207.29V44.6764H212.858V61.3836H232Z" fill="#FF9332"/>
</svg>
